<?xml version="1.0" encoding="utf-8"?>
<!-- Generator: Adobe Illustrator 26.3.1, SVG Export Plug-In . SVG Version: 6.00 Build 0)  -->
<svg version="1.1" id="Layer_1" xmlns="http://www.w3.org/2000/svg" xmlns:xlink="http://www.w3.org/1999/xlink" x="0px" y="0px"
	 viewBox="0 0 500 42" style="enable-background:new 0 0 500 42;" xml:space="preserve">
<style type="text/css">
	.st0{display:none;}
	.st1{display:inline;fill:#FFFFFF;}
	.st2{fill:#FFFFFF;}
</style>
<g class="st0">
	<path class="st1" d="M14.5,33.4C7.3,33.4,2,27.9,2,20.9v-0.1C2,13.9,7.2,8.3,14.7,8.3c4.6,0,7.3,1.5,9.6,3.8L20.9,16
		c-1.9-1.7-3.8-2.7-6.2-2.7c-4.1,0-7,3.4-7,7.6V21c0,4.2,2.9,7.6,7,7.6c2.8,0,4.5-1.1,6.4-2.8l3.4,3.4
		C21.9,31.7,19.2,33.4,14.5,33.4z"/>
	<path class="st1" d="M52.2,33L47,25.2h-4.2V33h-5.3V8.7h11.1c5.7,0,9.2,3,9.2,8v0.1c0,3.9-2.1,6.4-5.2,7.5l5.9,8.7H52.2z M52.3,17
		c0-2.3-1.6-3.5-4.2-3.5h-5.3v7h5.4C50.8,20.5,52.3,19.1,52.3,17L52.3,17z"/>
	<path class="st1" d="M71.4,33V8.7h5.3V33H71.4z"/>
	<path class="st1" d="M100.2,33.3c-3.7,0-7.4-1.3-10.3-3.9l3.2-3.8c2.2,1.8,4.5,3,7.3,3c2.2,0,3.5-0.9,3.5-2.3v-0.1
		c0-1.4-0.8-2-4.9-3.1c-4.9-1.3-8.1-2.6-8.1-7.4v-0.1c0-4.4,3.5-7.3,8.5-7.3c3.5,0,6.6,1.1,9,3.1l-2.8,4c-2.2-1.5-4.3-2.4-6.3-2.4
		s-3.1,0.9-3.1,2.1v0.1c0,1.6,1,2.1,5.2,3.2c4.9,1.3,7.7,3.1,7.7,7.3v0.1C109.1,30.6,105.4,33.3,100.2,33.3z"/>
	<path class="st1" d="M132.9,13.6V33h-5.3V13.6h-7.4V8.7h20.1v4.9H132.9z"/>
	<path class="st1" d="M153.4,33V8.7h5.3V33H153.4z"/>
	<path class="st1" d="M190.5,33l-11.8-15.5V33h-5.3V8.7h4.9l11.4,15v-15h5.3V33H190.5z"/>
	<path class="st1" d="M227.7,33l-2.2-5.5h-10.3L213,33h-5.4L218,8.5h4.9L233.3,33H227.7z M220.3,14.9l-3.2,7.9h6.5L220.3,14.9z"/>
	<path class="st1" d="M275.8,13.6V33h-5.3V13.6h-7.4V8.7h20.1v4.9H275.8z"/>
	<path class="st1" d="M311,33l-2.2-5.5h-10.3l-2.2,5.5h-5.4l10.4-24.5h4.9L316.6,33H311z M303.6,14.9l-3.2,7.9h6.5L303.6,14.9z"/>
	<path class="st1" d="M343.8,33l-5.2-7.8h-4.2V33H329V8.7h11.1c5.7,0,9.2,3,9.2,8v0.1c0,3.9-2.1,6.4-5.2,7.5L350,33H343.8z
		 M343.9,17c0-2.3-1.6-3.5-4.2-3.5h-5.3v7h5.4C342.4,20.5,343.9,19.1,343.9,17L343.9,17z"/>
	<path class="st1" d="M384.5,33.7l-2.7-2.4c-2.1,1.3-4.5,2.1-7.2,2.1c-7.5,0-12.9-5.6-12.9-12.5v-0.1c0-6.9,5.5-12.6,13-12.6
		s12.9,5.6,12.9,12.5v0.1c0,2.5-0.8,5-2.2,7l2.5,2.1L384.5,33.7z M382,20.8c0-4.2-3.1-7.6-7.4-7.6s-7.3,3.4-7.3,7.6v0.1
		c0,4.2,3.1,7.6,7.4,7.6c1.2,0,2.3-0.2,3.2-0.7l-4-3.4l3.4-3.8l4,3.6C381.8,23.2,382,22.1,382,20.8L382,20.8z"/>
	<path class="st1" d="M411.1,33.4c-6.5,0-10.5-3.6-10.5-10.8V8.7h5.3v13.8c0,4,2,6,5.2,6c3.3,0,5.2-2,5.2-5.8v-14h5.3v13.7
		C421.8,29.8,417.7,33.4,411.1,33.4z"/>
	<path class="st1" d="M436.2,33V8.7h5.3V33H436.2z"/>
	<path class="st1" d="M473.3,33l-11.8-15.5V33h-5.3V8.7h4.9l11.4,15v-15h5.3V33H473.3z"/>
	<path class="st1" d="M492.7,33V8.7h5.3V33H492.7z"/>
</g>
<g>
	<path class="st2" d="M59.8,33.9l0-16.3l-8.1,13.5h-2l-8.1-13.3v16.1h-4.4V9.3H41l9.8,16.3l9.6-16.3h3.8l0,24.6H59.8z"/>
	<path class="st2" d="M100,15.1v18.8h-4.2v-2.4c-1.4,1.7-3.6,2.6-6,2.6c-4.8,0-8.1-2.6-8.1-8.3V15.1h4.4v10.1c0,3.4,1.6,5,4.4,5
		c3.1,0,5.1-1.9,5.1-5.7v-9.5H100z"/>
	<path class="st2" d="M135.7,23.2v10.8h-4.4V23.7c0-3.3-1.7-5-4.5-5c-3.1,0-5.2,1.9-5.2,5.7v9.5h-4.4V7.8h4.4v9.5
		c1.4-1.5,3.7-2.4,6.3-2.4C132.4,14.9,135.7,17.5,135.7,23.2z"/>
	<path class="st2" d="M168.5,22.9v11h-4.1v-2.3c-1.1,1.6-3.1,2.5-5.9,2.5c-4.3,0-7-2.4-7-5.6c0-3.1,2.1-5.6,7.8-5.6h4.9v-0.3
		c0-2.6-1.5-4.1-4.7-4.1c-2.1,0-4.3,0.7-5.7,1.9l-1.7-3.2c2-1.5,4.9-2.3,7.9-2.3C165.4,14.9,168.5,17.5,168.5,22.9z M164.1,28v-2.2
		h-4.5c-3,0-3.8,1.1-3.8,2.5c0,1.6,1.3,2.6,3.6,2.6C161.5,31,163.4,30,164.1,28z"/>
	<path class="st2" d="M217,23.2v10.8h-4.4V23.7c0-3.3-1.5-5-4.2-5c-2.9,0-4.9,1.9-4.9,5.6v9.5h-4.4V23.7c0-3.3-1.5-5-4.2-5
		c-2.9,0-4.9,1.9-4.9,5.6v9.5h-4.4V15.1h4.2v2.4c1.4-1.7,3.6-2.6,6.2-2.6c2.7,0,5,1,6.3,3.1c1.5-1.9,4-3.1,7-3.1
		C213.8,14.9,217,17.5,217,23.2z"/>
	<path class="st2" d="M265.4,23.2v10.8H261V23.7c0-3.3-1.5-5-4.2-5c-2.9,0-4.9,1.9-4.9,5.6v9.5h-4.4V23.7c0-3.3-1.5-5-4.2-5
		c-2.9,0-4.9,1.9-4.9,5.6v9.5H234V15.1h4.2v2.4c1.4-1.7,3.6-2.6,6.2-2.6c2.7,0,5,1,6.3,3.1c1.5-1.9,4-3.1,7-3.1
		C262.3,14.9,265.4,17.5,265.4,23.2z"/>
	<path class="st2" d="M298.2,22.9v11h-4.1v-2.3c-1.1,1.6-3.1,2.5-5.9,2.5c-4.3,0-7-2.4-7-5.6c0-3.1,2.1-5.6,7.8-5.6h4.9v-0.3
		c0-2.6-1.5-4.1-4.7-4.1c-2.1,0-4.3,0.7-5.7,1.9l-1.7-3.2c2-1.5,4.9-2.3,7.9-2.3C295.1,14.9,298.2,17.5,298.2,22.9z M293.8,28v-2.2
		h-4.5c-3,0-3.8,1.1-3.8,2.5c0,1.6,1.3,2.6,3.6,2.6C291.2,31,293.1,30,293.8,28z"/>
	<path class="st2" d="M333.9,7.8v26.1h-4.2v-2.4c-1.5,1.8-3.7,2.7-6.2,2.7c-5.4,0-9.5-3.8-9.5-9.6c0-5.8,4-9.6,9.5-9.6
		c2.4,0,4.6,0.8,6,2.5V7.8H333.9z M329.5,24.5c0-3.6-2.4-5.9-5.6-5.9s-5.6,2.3-5.6,5.9c0,3.6,2.4,5.9,5.6,5.9S329.5,28.1,329.5,24.5
		z"/>
	<path class="st2" d="M394.5,27.2c0,4.2-3.3,6.7-9.6,6.7h-12.2V9.3h11.5c5.9,0,9.1,2.5,9.1,6.4c0,2.5-1.3,4.4-3.2,5.4
		C392.7,22,394.5,24,394.5,27.2z M377.2,12.9v6.8h6.5c3.2,0,5-1.1,5-3.4c0-2.3-1.8-3.4-5-3.4H377.2z M389.9,26.8
		c0-2.5-1.9-3.6-5.3-3.6h-7.4v7.1h7.4C388.1,30.3,389.9,29.2,389.9,26.8z"/>
	<path class="st2" d="M428.6,15.1v18.8h-4.2v-2.4c-1.4,1.7-3.6,2.6-6,2.6c-4.8,0-8.1-2.6-8.1-8.3V15.1h4.4v10.1c0,3.4,1.6,5,4.4,5
		c3.1,0,5.1-1.9,5.1-5.7v-9.5H428.6z"/>
	<path class="st2" d="M457.8,33.9l-4.8-6.5l-4.9,6.5h-4.9l7.3-9.5l-7-9.2h4.9l4.6,6.2l4.6-6.2h4.7l-7,9.2l7.3,9.6H457.8z"/>
</g>
</svg>
