<?xml version="1.0" encoding="utf-8"?>
<!-- Generator: Adobe Illustrator 26.3.1, SVG Export Plug-In . SVG Version: 6.00 Build 0)  -->
<svg version="1.1" id="content" xmlns="http://www.w3.org/2000/svg" xmlns:xlink="http://www.w3.org/1999/xlink" x="0px" y="0px"
	 viewBox="0 0 1338 256" style="enable-background:new 0 0 1338 256;" xml:space="preserve">
<style type="text/css">
	.st0{display:none;}
	.st1{display:inline;}
	.st2{clip-path:url(#SVGID_00000148623857118566100540000015582413692879688333_);}
	.st3{display:inline;fill:#FFFFFF;}
	.st4{fill:#FFFFFF;}
</style>
<g class="st0">
	<defs>
		<rect id="SVGID_1_" width="1338" height="256"/>
	</defs>
	<clipPath id="SVGID_00000154385546005739457300000004217794579257573769_" class="st1">
		<use xlink:href="#SVGID_1_"  style="overflow:visible;"/>
	</clipPath>
	<g style="clip-path:url(#SVGID_00000154385546005739457300000004217794579257573769_);">
		<path class="st3" d="M504.5,160l34.6-91.7h13.3L587,160h-13.1l-8.8-24.8h-38.5l-9,24.8H504.5z M530.5,124.2H561l-15-41.3h-0.5
			L530.5,124.2z"/>
		<path class="st3" d="M605,97.3v10.2h0.5c1.4-3.7,4.1-6.8,7.6-8.6c3.7-2.1,7.9-3.2,12.2-3.1c1.4,0,2.8,0.1,4.2,0.3v11.5
			c-1.6-0.2-3.1-0.3-4.7-0.3c-5.6,0-10.3,1.6-13.9,4.9s-5.4,7.8-5.4,13.5V160h-11.8V97.3H605z M669.5,161c-6.6,0-11.6-1.7-15-5.2
			c-3.4-3.5-5.2-8.4-5.2-14.9V108h-11V97.3h11V78.1h11.8v19.2h15.4V108h-15.4v32c0,6.8,2.8,10.2,8.5,10.2c1.8,0.1,3.7-0.3,5.4-1
			l4.1,10.1C676,160.5,672.8,161.1,669.5,161z"/>
		<path class="st3" d="M709.7,162.1c-7,0-12.8-1.7-17.3-5.1c-4.4-3.3-7.9-7.7-10-12.8l10.5-4.4c3.3,7.9,9,11.8,17,11.8
			c3.2,0.1,6.3-0.7,9-2.4c2.2-1.4,3.5-3.8,3.5-6.4c0-4.1-2.9-6.9-8.6-8.3l-12.7-3.1c-4.2-1.1-8.1-3.1-11.4-5.8
			c-3.5-2.8-5.5-7.1-5.4-11.6c0-5.6,2.4-10.1,7.3-13.5c5.1-3.5,11.3-5.3,17.5-5.2c5.2-0.1,10.3,1.2,14.8,3.8
			c4.3,2.4,7.6,6.2,9.3,10.8l-10.2,4.2c-2.3-5.6-7.1-8.3-14.3-8.3c-3.1-0.1-6.1,0.7-8.8,2.2c-2.2,1.1-3.6,3.4-3.6,5.9
			c0,3.6,2.8,6,8.3,7.3l12.4,2.9c5.9,1.4,10.2,3.7,13.1,7c2.7,3.1,4.2,7.1,4.2,11.3c0.1,5.5-2.5,10.7-6.9,14.1
			C722.9,160.1,717,162,709.7,162.1z"/>
		<path class="st3" d="M838.7,127.2l-10.6,17l8.6,11.1l-8.8,6.7l-6.3-8.3c-5.7,5.4-13.4,8.4-21.2,8.3c-8.8,0.2-17.4-3.2-23.7-9.4
			c-6.4-5.9-9.9-14.3-9.7-23c0-5.4,1.5-10.6,4.2-15.2c2.8-4.9,6.8-8.9,11.6-11.8c-4.4-5.9-6.6-11-6.7-15.2c-0.1-5.7,2.3-11.2,6.5-15
			c4.2-4,9.8-6.2,15.6-6.2c4.7-0.1,9.3,1.4,13,4.4c3.5,2.9,6.1,6.7,7.5,11.1l-10.1,5.4c-2.4-6.4-5.8-9.6-10.4-9.6
			c-2.7-0.1-5.3,0.9-7.3,2.6c-2,1.8-3.1,4.5-3,7.2c0,3,1.1,5.9,3,8.2l30.3,39.7l8.2-13.7L838.7,127.2z M800.3,151.3
			c5.6,0.2,10.9-2.1,14.7-6.1l-25.9-33.9c-3.4,1.9-6.3,4.6-8.4,7.9c-2,3.1-3.1,6.8-3.1,10.5c-0.2,5.9,2.3,11.5,6.6,15.5
			C788.6,149.2,794.4,151.4,800.3,151.3L800.3,151.3z"/>
		<path class="st3" d="M918.6,162.1c-13.5,0-24.8-4.6-33.9-13.7c-9.1-9.1-13.7-20.5-13.7-34.2c0-13.7,4.6-25.1,13.7-34.2
			c9.1-9.1,20.4-13.7,33.9-13.7c13.8,0,25,5,33.7,15l-8.2,7.9c-6.2-7.8-14.7-11.7-25.5-11.7c-9.5-0.2-18.6,3.4-25.3,10.1
			c-6.9,6.7-10.3,15.6-10.3,26.5s3.4,19.8,10.3,26.5c6.7,6.7,15.8,10.3,25.3,10.1c11,0,20.4-4.4,28.2-13.3l8.2,8.2
			c-4.3,5.1-9.7,9.2-15.7,12C932.7,160.6,925.7,162.1,918.6,162.1z"/>
		<path class="st3" d="M1019.9,160h-11.3v-8.7h-0.5c-2,3.2-4.8,5.8-8.2,7.6c-3.5,2.1-7.6,3.1-11.7,3.1c-7.9,0-13.8-2.4-17.8-7.2
			s-6.1-11.2-6.1-19.2V97.3h11.8v36.5c0,11.7,5.2,17.5,15.5,17.5c4.7,0.1,9.1-2.1,11.9-5.9c3.1-3.9,4.7-8.7,4.6-13.6V97.3h11.8V160z
			"/>
		<path class="st3" d="M1046,160h-11.8V68.3h11.8V160z"/>
		<path class="st3" d="M1088.1,161c-6.6,0-11.6-1.7-15-5.2c-3.4-3.5-5.2-8.4-5.2-14.9V108h-11V97.3h11V78.1h11.8v19.2h15.3V108
			h-15.4v32c0,6.8,2.8,10.2,8.4,10.2c1.8,0.1,3.7-0.3,5.4-1l4.1,10.1C1094.5,160.5,1091.3,161.1,1088.1,161z"/>
		<path class="st3" d="M1160,160h-11.3v-8.7h-0.5c-2,3.2-4.9,5.8-8.2,7.6c-3.5,2.1-7.6,3.1-11.6,3.1c-7.9,0-13.8-2.4-17.9-7.2
			s-6.1-11.2-6.1-19.2V97.3h11.8v36.5c0,11.7,5.2,17.5,15.5,17.5c4.7,0.1,9.1-2.1,11.9-5.9c3-3.9,4.7-8.7,4.6-13.6V97.3h11.8V160z"
			/>
		<path class="st3" d="M1184.8,160h-11.8V97.3h11.3v10.2h0.5c1.4-3.6,4-6.6,7.4-8.4c3.2-2.1,7-3.2,10.8-3.3c3-0.1,6,0.4,8.8,1.5
			l-4.5,11c-2-0.7-4.1-1-6.3-0.9c-4.3,0-8.4,1.9-11.3,5.1c-3.3,3.4-4.9,7.8-4.9,13.2L1184.8,160z"/>
		<path class="st3" d="M1244.1,162.1c-9.5,0-17.2-3.2-23.1-9.5c-5.9-6.3-8.9-14.3-8.9-23.9c-0.2-8.7,2.9-17.1,8.6-23.6
			c5.5-6.5,13.6-10.1,22.1-9.9c9.3,0,16.8,3,22.3,9.1c5.6,6.1,8.3,14.2,8.4,24.3l-0.1,2.2h-49.5c0.3,6.3,2.5,11.3,6.3,15
			c3.6,3.6,8.5,5.6,13.6,5.5c8.5,0,14.2-3.6,17.2-10.8l10.5,4.4c-2.1,5-5.6,9.2-10.1,12.2C1256.7,160.4,1250.9,162,1244.1,162.1z
			 M1261,121.1c-0.2-3.6-1.9-7-4.9-10.2c-3-3.2-7.5-4.9-13.5-4.9c-4.2-0.1-8.2,1.4-11.3,4.1c-3.3,2.9-5.6,6.7-6.6,11L1261,121.1z"/>
		<path class="st3" d="M64.7,109.6c0-28.9,24.3-52.5,53.3-52.5c13.5-0.2,26.4,5,36,14.5l-10.2,10.1c-6.9-6.7-16.2-10.4-25.8-10.2
			c-21.1,0-37.6,17-37.6,38.2s16.5,38.1,37.6,38.1c13.7,0,21.5-5.5,26.5-10.5c4.1-4.1,6.8-10,7.8-18H118v-14.4h48.3
			c0.5,3,0.8,6,0.8,9c0,10.8-2.9,24.1-12.4,33.5c-9.2,9.6-21,14.7-36.6,14.7C89,162.1,64.7,138.5,64.7,109.6z"/>
		<path class="st3" d="M206,94.5c-18.7,0-33.9,14.2-33.9,33.8s15.2,33.8,33.9,33.8s33.9-14.3,33.9-33.8S224.7,94.5,206,94.5z
			 M206,148.7c-10.2,0-19.1-8.4-19.1-20.5s8.8-20.5,19.1-20.5s19.1,8.3,19.1,20.5S216.2,148.7,206,148.7L206,148.7z"/>
		<path class="st3" d="M280,94.5c-18.7,0-33.9,14.2-33.9,33.8s15.2,33.8,33.9,33.8s33.9-14.3,33.9-33.8S298.7,94.5,280,94.5z
			 M280,148.7c-10.2,0-19.1-8.4-19.1-20.5s8.8-20.5,19.1-20.5s19.1,8.3,19.1,20.5S290.2,148.7,280,148.7L280,148.7z"/>
		<path class="st3" d="M370.8,96.5v5.5h-0.5c-3.3-4-9.7-7.6-17.8-7.6c-16.9,0-32.4,14.8-32.4,33.9s15.5,33.7,32.4,33.7
			c8.1,0,14.5-3.6,17.8-7.7h0.5v4.9c0,12.9-6.9,19.8-18,19.8c-9.1,0-14.7-6.5-17-12l-12.9,5.4c5,12.1,16.8,20.1,30,20
			c17.4,0,32.1-10.2,32.1-35.2V96.5H370.8z M353.8,148.7c-10.2,0-18.8-8.6-18.8-20.4s8.6-20.6,18.8-20.6s18,8.7,18,20.6
			S363.9,148.7,353.8,148.7L353.8,148.7z"/>
		<rect x="395.1" y="60.7" class="st3" width="14.9" height="99.3"/>
		<path class="st3" d="M450.7,148.7c-7.6,0-12.9-3.5-16.4-10.2l45.2-18.7L478,116c-2.8-7.6-11.4-21.5-28.9-21.5
			s-31.9,13.7-31.9,33.8c0,18.9,14.3,33.8,33.5,33.8c11.3,0.1,21.9-5.6,28.2-15l-11.5-7.7C463.5,145,458.3,148.7,450.7,148.7z
			 M449.5,107.5c5.9,0,10.9,2.9,12.5,7.2l-30.2,12.5C431.5,114.2,442,107.5,449.5,107.5z"/>
	</g>
</g>
<g>
	<path class="st4" d="M298.7,156.6c-4.7,7.4-11.5,13.4-20.2,17.9c-8.7,4.5-18.9,6.7-30.5,6.7c-17.8,0-32.1-4.1-43-12.4
		c-10.8-8.3-16.3-19.9-16.3-34.9h34.8c0.6,7,3,12.3,7.1,15.9c4.1,3.6,9.9,5.5,17.3,5.5s13.3-1.9,17.6-5.8c4.3-3.9,6.5-8.9,6.5-15.1
		c0-5-1.5-9-4.5-12.1c-3-3.1-6.7-5.5-11.1-7.2c-4.4-1.7-10.6-3.6-18.7-5.8c-10.4-2.6-18.8-5.3-25.3-8.1c-6.5-2.8-12.1-7.2-16.7-13.1
		c-4.6-6-7-14-7-24.3c0-9.8,2.4-18.3,7.3-25.7c4.9-7.4,11.6-13,20.3-17c8.7-3.9,18.5-5.9,29.5-5.9c16.9,0,30.4,3.8,40.6,11.5
		c10.2,7.7,15.8,19.3,16.7,34.9h-35.8c-0.6-6.2-2.9-11.1-7-14.7c-4-3.6-9.2-5.5-15.6-5.5c-6.7,0-12,1.7-16.1,5
		c-4.1,3.3-6.2,8.4-6.2,15.2c0,5.1,1.5,9.3,4.5,12.4c3,3.2,6.8,5.6,11.3,7.3c4.5,1.7,10.7,3.6,18.6,5.6c10.4,2.6,18.8,5.3,25.3,8.1
		c6.5,2.8,12,7.2,16.6,13.1c4.6,6,6.9,14,6.9,24.3C305.8,141.1,303.5,149.1,298.7,156.6z"/>
	<path class="st4" d="M441.4,57.4c9.1,5.6,16.3,13.4,21.6,23.3c5.3,10,7.9,21.4,7.9,34.3c0,12.9-2.6,24.3-7.9,34.5
		c-5.3,10.1-12.5,18-21.6,23.6c-9.1,5.6-19.2,8.4-30.2,8.4c-9.3,0-17.4-2.1-24.3-6.3c-6.9-4.2-12.6-9.9-17.1-17.2v82.9h-32.7v-190
		h32.7v20c4.2-6.8,9.8-12.2,16.8-16c7-3.9,15.2-5.8,24.5-5.8C422.2,49,432.3,51.8,441.4,57.4z M387.2,81.8c-5.2,2.9-9.4,7.3-12.5,13
		c-3.2,5.7-4.8,12.5-4.8,20.4s1.6,14.7,4.8,20.4c3.2,5.7,7.4,10.1,12.5,13c5.2,2.9,10.7,4.4,16.6,4.4c5.9,0,11.4-1.5,16.6-4.4
		c5.2-2.9,9.4-7.3,12.5-13.1c3.2-5.8,4.8-12.7,4.8-20.6s-1.6-14.7-4.8-20.4c-3.2-5.7-7.4-10-12.5-12.9c-5.2-2.9-10.7-4.3-16.6-4.3
		C397.9,77.4,392.4,78.9,387.2,81.8z"/>
	<path class="st4" d="M587.7,57.2c10.1,5.4,18,13.1,23.9,23.1c5.9,10,8.8,21.6,8.8,34.7c0,13.2-2.9,24.8-8.8,34.8
		c-5.9,10.1-13.9,17.8-24,23.3c-10.1,5.5-21.4,8.2-33.8,8.2c-12.2,0-23.4-2.7-33.4-8.2c-10.1-5.5-18-13.3-23.8-23.3
		c-5.8-10.1-8.7-21.7-8.7-34.8c0-13.2,2.9-24.7,8.8-34.7c5.9-10,13.9-17.7,23.9-23.1c10.1-5.4,21.3-8.1,33.7-8.1
		C566.5,49,577.7,51.8,587.7,57.2z M530.6,86.7c-6.3,6.7-9.5,16.2-9.5,28.6c0,8.4,1.5,15.4,4.5,21.2c3,5.8,7,10.1,12,13
		c5,2.9,10.4,4.3,16.3,4.3c5.7,0,11.1-1.5,16.3-4.4c5.1-2.9,9.2-7.3,12.4-13.1c3.2-5.8,4.8-12.8,4.8-21c0-8.4-1.5-15.4-4.6-21.2
		c-3.1-5.8-7.2-10.1-12.2-13c-5-2.9-10.5-4.3-16.4-4.3C544.8,76.7,536.9,80,530.6,86.7z"/>
	<path class="st4" d="M744.8,55.4c7.5,4.3,13.4,10.5,17.8,18.8c4.3,8.3,6.5,18.2,6.5,29.6v75.7h-32.5v-71.1
		c0-10.1-2.6-17.8-7.7-23.1c-5.1-5.3-12.1-8-20.9-8c-8.8,0-15.8,2.7-21,8c-5.2,5.3-7.8,13-7.8,23.1v71.1h-32.7V50.9h32.7v19.3
		c4-6.8,9.5-12,16.4-15.7c6.9-3.6,14.7-5.5,23.6-5.5C728.8,49,737.3,51.2,744.8,55.4z"/>
	<path class="st4" d="M885,60.3c9.4,7.5,14.5,17.7,15.1,30.5h-33.4c-0.9-10.8-7.6-16.3-20-16.3c-6.2,0-11,1.2-14.4,3.7
		c-3.4,2.5-5.1,5.7-5.1,9.8c0,3.4,1.2,6.1,3.7,8.1c2.5,2,5.5,3.6,9.2,4.8c3.6,1.2,8.9,2.5,15.7,4.1c9.4,2,17.2,4.1,23.3,6.4
		c6.1,2.2,11.3,5.8,15.7,10.7c4.3,4.9,6.5,11.6,6.5,20.1c0,7.7-2.2,14.6-6.7,20.4c-4.5,5.9-10.7,10.5-18.6,13.8s-16.8,5-26.7,5
		c-15.5,0-28.1-3.6-37.9-10.8c-9.8-7.2-15.1-17.5-16-31h33.4c0.6,5.3,2.7,9.3,6.3,12.1c3.6,2.8,8.4,4.2,14.4,4.2
		c6,0,10.9-1.4,14.6-4.1c3.7-2.7,5.6-6.2,5.6-10.3c0-3.4-1.2-6.2-3.7-8.2c-2.5-2.1-5.6-3.7-9.3-4.9c-3.7-1.2-9.1-2.5-16-4.1
		c-9.4-2-17.1-4.1-23.1-6.3c-6-2.2-11.1-5.6-15.4-10.3c-4.3-4.7-6.5-11.1-6.5-19.2c0-7.1,2.1-13.7,6.3-19.7
		c4.2-6,10.3-10.8,18.3-14.4c8-3.6,17.6-5.3,28.6-5.3C863.4,49,875.5,52.8,885,60.3z"/>
	<path class="st4" d="M1020.1,57.2c10.1,5.4,18,13.1,23.9,23.1c5.9,10,8.8,21.6,8.8,34.7c0,13.2-2.9,24.8-8.8,34.8
		c-5.9,10.1-13.9,17.8-24,23.3c-10.1,5.5-21.4,8.2-33.8,8.2c-12.2,0-23.4-2.7-33.4-8.2c-10.1-5.5-18-13.3-23.8-23.3
		c-5.8-10.1-8.7-21.7-8.7-34.8c0-13.2,2.9-24.7,8.8-34.7c5.9-10,13.9-17.7,23.9-23.1c10.1-5.4,21.3-8.1,33.7-8.1
		C998.9,49,1010,51.8,1020.1,57.2z M963,86.7c-6.3,6.7-9.5,16.2-9.5,28.6c0,8.4,1.5,15.4,4.5,21.2c3,5.8,7,10.1,12,13
		c5,2.9,10.4,4.3,16.3,4.3c5.7,0,11.1-1.5,16.3-4.4c5.1-2.9,9.2-7.3,12.4-13.1c3.2-5.8,4.8-12.8,4.8-21c0-8.4-1.5-15.4-4.6-21.2
		c-3.1-5.8-7.2-10.1-12.2-13c-5-2.9-10.5-4.3-16.4-4.3C977.1,76.7,969.3,80,963,86.7z"/>
	<path class="st4" d="M1127.3,55.5c6.4-4.3,13.7-6.5,21.9-6.5v33.4h-8.1c-9.8,0-17.1,2.4-22.1,7.3c-5,4.9-7.4,13.3-7.4,25.2v64.6
		h-32.7V50.9h32.7v22.8C1115.6,65.9,1120.8,59.9,1127.3,55.5z"/>
</g>
</svg>
