<?xml version="1.0" encoding="utf-8"?>
<!-- Generator: Adobe Illustrator 26.3.1, SVG Export Plug-In . SVG Version: 6.00 Build 0)  -->
<svg version="1.1" id="Layer_1" xmlns="http://www.w3.org/2000/svg" xmlns:xlink="http://www.w3.org/1999/xlink" x="0px" y="0px"
	 viewBox="0 0 1944 182" style="enable-background:new 0 0 1944 182;" xml:space="preserve">
<style type="text/css">
	.st0{display:none;fill:#FFFFFF;}
	.st1{fill:#FFFFFF;}
</style>
<path class="st0" d="M12,161.3V20.7h36.5l67.5,85.9V20.7h36.3v140.5H116L48.5,75.3v85.9L12,161.3z"/>
<path class="st0" d="M246.7,51.7h-43.4v23.5h41v30.9h-41v24.2h43.4v30.9h-80V20.7h80L246.7,51.7z"/>
<path class="st0" d="M295.5,20.7l24.2,90.8l29.8-90.8h29.1l29.8,90.8l24.2-90.8h38.2L429,161.3h-37.3l-27.6-81.5l-27.6,81.4h-37.3
	L257.3,20.7H295.5z"/>
<path class="st0" d="M638.5,67.7c-8.5-10.3-18.9-15.5-31.3-15.5c-5.2,0-10.4,1-15.2,3c-4.5,1.9-8.6,4.6-12,8.1
	c-3.4,3.5-6.1,7.6-8,12.2c-2,4.9-2.9,10-2.9,15.3c-0.1,5.3,0.9,10.6,2.9,15.5c3.7,9.2,10.9,16.6,20,20.5c4.7,2,9.8,3,14.9,3
	c11.7,0,22.2-5,31.5-14.9v43.2l-3.7,1.3c-5.1,1.9-10.3,3.3-15.7,4.4c-4.7,0.9-9.5,1.4-14.3,1.4c-19.2,0-37.6-7.5-51.3-21
	c-6.9-6.8-12.4-14.8-16.3-23.7c-4.2-9.4-6.3-19.6-6.2-29.9c-0.1-10.2,2-20.3,6.1-29.7c11.9-26.8,38.6-44.1,67.9-44.1
	c5.5,0,11.1,0.6,16.5,1.8c5.8,1.3,11.6,3.2,17.1,5.5L638.5,67.7z"/>
<path class="st0" d="M689,75h52.8V20.7h36.5v140.5h-36.6v-58H689v58h-36.6V20.7H689V75z"/>
<path class="st0" d="M909.5,161.3H864l-34.9-54.1v54.1h-36.5V20.7h56.8c7-0.2,14,1,20.6,3.5c10.7,3.9,19.1,12.4,23,23.2
	c2,5.4,2.9,11.1,2.9,16.8c0,10.7-2.6,19.3-7.7,26c-5.2,6.7-12.8,11.2-22.8,13.5L909.5,161.3z M829.1,83.6h6.9
	c7.2,0,12.7-1.5,16.6-4.5c3.9-3,5.8-7.3,5.8-12.9c0-5.6-1.9-9.9-5.8-12.9c-3.9-3-9.4-4.5-16.6-4.5h-6.9L829.1,83.6z"/>
<path class="st0" d="M900.7,91c-0.4-30.3,18.1-57.6,46.3-68.5c20.2-7.6,42.5-7.6,62.7,0c9.2,3.6,17.6,8.9,24.7,15.8
	c6.9,6.7,12.4,14.7,16.1,23.6c3.9,9.2,5.9,19.2,5.8,29.2c0.1,10-1.9,19.9-5.8,29.2c-3.8,8.9-9.2,16.9-16.1,23.6
	c-7.1,6.8-15.5,12.2-24.7,15.8c-20.2,7.6-42.5,7.6-62.7,0C918.8,148.5,900.4,121.2,900.7,91z M938.9,91c-0.1,5.3,1,10.6,3.2,15.5
	c2,4.6,4.9,8.8,8.6,12.3c3.6,3.5,7.9,6.3,12.6,8.1c9.8,3.9,20.6,3.9,30.4,0c4.7-1.9,9-4.6,12.7-8.1c3.7-3.5,6.6-7.7,8.7-12.3
	c4.2-9.9,4.2-21.1,0-30.9c-2.1-4.6-5-8.8-8.7-12.3c-11.6-10.8-28.3-13.9-43.1-8.1c-9.5,3.8-17.1,11.1-21.2,20.4
	C939.9,80.4,938.9,85.7,938.9,91L938.9,91z"/>
<path class="st0" d="M1059.1,161.3L1083,20.7h36.2l28.1,74.9l28-74.9h36.2l23.9,140.5H1199l-12.1-80.9l-33.2,80.9h-14.6l-31.5-80.9
	l-12.1,80.9L1059.1,161.3z"/>
<path class="st0" d="M1342.3,136.9h-52.2l-8.4,24.4h-39l53.5-140.5h39.9l53.5,140.5h-39L1342.3,136.9z M1332.6,109.1l-16.4-46.8
	l-16.4,46.8H1332.6z"/>
<path class="st0" d="M1398,161.3V20.7h36.5l67.5,85.9V20.7h36.3v140.5H1502l-67.5-85.9v85.9H1398z"/>
<path class="st0" d="M1618.7,51.7v109.6h-36.5V51.7h-30V20.7h96.6v30.9H1618.7z"/>
<path class="st0" d="M1699,20.7v140.5h-36.5V20.7H1699z"/>
<path class="st0" d="M1819.1,67.7c-8.4-10.3-18.9-15.5-31.3-15.5c-5.2,0-10.4,1-15.2,3c-9.1,3.8-16.3,11.1-19.9,20.3
	c-2,4.9-2.9,10-2.9,15.3c-0.1,5.3,0.9,10.6,2.9,15.5c5.7,14.3,19.6,23.6,35,23.5c11.7,0,22.2-5,31.5-14.9v43.2l-3.7,1.3
	c-5.1,1.9-10.3,3.3-15.7,4.4c-4.7,0.9-9.5,1.4-14.3,1.4c-19.2,0-37.6-7.5-51.3-21c-6.9-6.8-12.4-14.8-16.3-23.7
	c-4.2-9.4-6.3-19.6-6.2-29.9c-0.1-10.2,1.9-20.4,6.1-29.7c11.9-26.8,38.6-44.1,67.9-44.1c5.5,0,11,0.6,16.4,1.8
	c5.8,1.3,11.6,3.2,17.1,5.5L1819.1,67.7z"/>
<path class="st0" d="M1911.7,56.7c-3.6-3-7.6-5.4-11.9-7.2c-3.7-1.5-7.6-2.3-11.6-2.3c-4.7,0-8.6,1.1-11.6,3.3
	c-2.9,2-4.5,5.3-4.5,8.8c-0.1,2.3,0.7,4.5,2.2,6.2c1.7,1.8,3.7,3.2,5.9,4.2c2.6,1.3,5.4,2.3,8.2,3.1c3,0.9,6,1.8,9,2.8
	c11.9,4,20.6,9.3,26.2,15.9c5.5,6.6,8.3,15.3,8.3,26c0.1,6.7-1.1,13.4-3.6,19.6c-2.4,5.7-6,10.9-10.6,15c-5,4.4-10.8,7.7-17.2,9.7
	c-7.4,2.4-15.2,3.6-23,3.4c-17.8,0-34.2-5.3-49.4-15.8l15.7-29.4c4.8,4.4,10.3,8.1,16.2,10.8c5,2.3,10.4,3.5,15.8,3.5
	c6,0,10.4-1.4,13.3-4.1c4.2-3.7,5.6-9.7,3.3-14.8c-0.9-1.7-2.2-3.2-3.7-4.3c-2.1-1.5-4.4-2.7-6.8-3.6c-2.8-1.1-6.2-2.4-10.2-3.7
	c-4.7-1.5-9.3-3.1-13.9-4.9c-4.4-1.7-8.5-4.1-12.1-7.2c-3.6-3.1-6.6-6.9-8.6-11.3c-2.1-4.5-3.2-10.3-3.2-17.3
	c-0.1-6.5,1.1-12.9,3.4-18.9c2.2-5.5,5.5-10.4,9.7-14.5c4.4-4.2,9.6-7.4,15.3-9.4c6.5-2.3,13.3-3.4,20.2-3.4
	c7.4,0.1,14.7,1,21.8,2.9c7.6,1.9,14.9,4.8,21.8,8.5L1911.7,56.7z"/>
<g>
	<path class="st1" d="M575.1,121.7l28.5-75.5h11.9l-34.7,86.4h-11.2l-34.7-86.4h11.9L575.1,121.7z"/>
	<path class="st1" d="M629.6,15.9c1.6-1.6,3.5-2.4,5.7-2.4c2.3,0,4.2,0.8,5.8,2.4c1.5,1.6,2.3,3.5,2.3,5.7c0,2.3-0.8,4.3-2.3,5.9
		c-1.5,1.6-3.5,2.4-5.8,2.4c-2.2,0-4.1-0.8-5.7-2.4s-2.4-3.5-2.4-5.9C627.2,19.4,628,17.5,629.6,15.9z M640.6,46.2v86.4h-11.1V46.2
		H640.6z"/>
	<path class="st1" d="M671,123.7h44.2v8.9h-56.4v-8.9L703,54.9h-44.2v-8.7h56.4v8.7L671,123.7z"/>
	<path class="st1" d="M740.2,123.7h44.2v8.9H728v-8.9l44.2-68.9H728v-8.7h56.4v8.7L740.2,123.7z"/>
	<path class="st1" d="M916.4,50c6.3,3.6,11.3,8.8,15,15.4c3.6,6.6,5.5,14.4,5.5,23.1c0,8.8-1.8,16.6-5.5,23.6
		c-3.6,7-8.7,12.4-15,16.2c-6.4,3.9-13.5,5.8-21.3,5.8c-7.8,0-14.7-1.9-20.6-5.8c-5.9-3.9-10.3-8.8-13.1-14.8v19h-11.1V15.4h11.1V65
		c2.8-6,7.2-10.9,13.1-14.7c5.9-3.8,12.8-5.7,20.6-5.7C903,44.6,910.1,46.4,916.4,50z M877.4,58.4c-4.9,2.9-8.8,7-11.7,12.3
		c-2.9,5.3-4.4,11.5-4.4,18.6c0,7.1,1.4,13.3,4.4,18.6c2.9,5.3,6.8,9.4,11.7,12.3c4.9,2.9,10.2,4.4,15.9,4.4c5.7,0,11-1.5,15.9-4.5
		c4.9-3,8.8-7.3,11.8-12.7c3-5.5,4.4-11.8,4.4-18.8c0-7.1-1.5-13.2-4.4-18.4c-2.9-5.2-6.8-9.2-11.7-12c-4.9-2.7-10.3-4.1-16.1-4.1
		C887.6,54.1,882.3,55.5,877.4,58.4z"/>
	<path class="st1" d="M957.3,46.2l28.5,73.5l28.5-73.5h11.2l-51.3,126.7H963l16.8-41.5l-34.4-85.2H957.3z"/>
	<path class="st1" d="M1154.9,85.8c4.3,5.2,6.5,11.2,6.5,17.8c0,5.3-1.5,10.1-4.4,14.6c-2.9,4.4-7,7.9-12.4,10.5
		c-5.4,2.6-11.6,3.9-18.7,3.9h-38.6V23.4h36.9c11.2,0,19.8,2.7,25.7,8.2c6,5.4,8.9,12.4,8.9,21c0,12.1-7,20.1-20.9,23.7
		C1144.9,77.4,1150.5,80.6,1154.9,85.8z M1098.3,71.8h25.8c7.4,0,13.1-1.8,17.3-5.3c4.1-3.5,6.2-8.3,6.2-14.3c0-6-2.1-10.8-6.2-14.4
		c-4.1-3.6-9.9-5.4-17.3-5.4h-25.8V71.8z M1144.1,118c4.3-3.8,6.5-9.1,6.5-15.8c0-6.5-2.4-11.7-7.2-15.6c-4.8-3.9-11.2-5.8-19.1-5.8
		h-26v42.9h27.4C1133.6,123.7,1139.8,121.8,1144.1,118z"/>
	<path class="st1" d="M1254.1,46.2v86.4H1243v-14.1c-3,5.2-6.9,9.1-12,11.7c-5,2.6-10.6,4-16.7,4c-6.1,0-11.7-1.3-16.9-4
		c-5.1-2.7-9.2-6.8-12.3-12.3c-3.1-5.5-4.6-12.3-4.6-20.2V46.2h10.9v49.4c0,9.5,2.3,16.7,6.9,21.7c4.6,5,10.8,7.4,18.8,7.4
		c8,0,14.3-2.5,18.9-7.4c4.6-5,6.9-12.2,6.9-21.7V46.2H1254.1z"/>
	<path class="st1" d="M1308.6,89.4l27.7,43.2h-12.7l-22.3-34.7l-20.4,34.7h-12.7l27.7-43.2l-27.7-43.2h12.7l22.3,34.8l20.6-34.8
		h12.7L1308.6,89.4z"/>
	<path class="st1" d="M1381.3,89.4l27.7,43.2h-12.7L1374,97.9l-20.4,34.7h-12.7l27.7-43.2l-27.7-43.2h12.7l22.3,34.8l20.6-34.8h12.7
		L1381.3,89.4z"/>
</g>
</svg>
